<svg xmlns="http://www.w3.org/2000/svg" width="1920" height="1131" viewBox="0 0 1920 1131" fill="none">
  <path d="M715.851 942.795H1255.41M-135.182 26.4539L-135.182 1131M-63.2411 26.4539L-63.2411 1131M8.70025 26.4539L8.7002 1131M80.6416 26.4539L80.6416 1131M152.583 26.4539L152.583 1131M224.524 26.4539L224.524 1131M296.466 26.4539L296.466 1131M368.407 26.4539L368.407 1131M440.348 26.4539L440.348 1131M-136 1087.03H2094.18M512.29 26.4539L512.29 1131M-136 1019.16H2094.18M584.231 26.4539L584.231 1131M-136 951.28H2094.18M656.173 26.4539L656.173 1131M-136 883.403H2094.18M728.114 26.4539L728.114 1131M-136 815.526H2094.18M800.055 26.4539L800.055 1131M-136 747.648H2094.18M871.997 26.4539L871.997 1131M-136 679.771H2094.18M943.938 26.4539L943.938 1131M-136 611.894H2094.18M1015.88 26.4539L1015.88 1131M-136 544.017H2094.18M1087.82 26.4539L1087.82 1131M-136 476.14H2094.18M1159.76 26.4539L1159.76 1131M-136 408.263H2094.18M1231.7 26.4539L1231.7 1131M-136 340.386H2094.18M1303.64 26.4539L1303.64 1131M-136 272.509H2094.18M1375.59 26.4539L1375.59 1131M-136 204.631H2094.18M1447.53 26.4539L1447.53 1131M-136 136.754H2094.18M1519.47 26.4539L1519.47 1131M-136 68.8771H2094.18M1591.41 26.4539V1131M-136 1L2094.18 1M1663.35 26.4539V1131M1735.29 26.4539V1131M1807.23 26.4539V1131M1879.18 26.4539V1131M1951.12 26.4539V1131M2023.06 26.4539V1131M2095 26.4539V1131" stroke="url(#paint0_radial_1_78)" stroke-width="0.888544"/>
  <defs>
    <radialGradient id="paint0_radial_1_78" cx="0" cy="0" r="1" gradientUnits="userSpaceOnUse" gradientTransform="translate(979.5 498.94) rotate(90) scale(632.06 1247.9)">
      <stop stop-color="white" stop-opacity="0.12"/>
      <stop offset="1" stop-color="white" stop-opacity="0"/>
    </radialGradient>
  </defs>
</svg>